<svg width="33" height="46" viewBox="0 0 33 46" fill="none" xmlns="http://www.w3.org/2000/svg">
<g id="Group 66">
<path id="Vector" d="M16.7555 0.867188C23.5808 0.884214 29.839 5.66378 31.7561 12.5369C32.2103 14.1651 32.4297 15.8217 32.3289 17.5073C32.2366 19.0511 31.7852 20.5197 31.2536 21.9613C29.8375 25.7994 27.8381 29.3424 25.6846 32.801C23.1677 36.842 20.4556 40.7489 17.439 44.4381C17.2148 44.7119 16.9642 44.9638 16.7378 45.2369C16.5355 45.481 16.3609 45.4668 16.165 45.2305C15.458 44.3749 14.7192 43.5442 14.0413 42.6673C10.6145 38.2346 7.46234 33.6168 4.72328 28.7259C3.32146 26.2229 2.07792 23.6462 1.15237 20.9212C-0.0762692 17.3087 0.275783 13.7912 1.8004 10.3759C3.6359 6.26327 6.72203 3.42759 10.9431 1.84055C12.7197 1.17296 14.5708 0.888471 16.7555 0.867188Z" fill="#1D70B8"/>
<path id="Vector_2" d="M20.4577 22.8414C20.4577 23.0479 20.459 23.2215 20.4577 23.3951C20.4482 24.602 19.6007 25.4591 18.4123 25.4595C16.0143 25.4604 13.6167 25.4608 11.2186 25.4595C10.0207 25.4591 9.16547 24.5919 9.16503 23.3758C9.16374 19.9564 9.16374 16.5369 9.16503 13.1178C9.16503 11.8917 10.0216 11.0311 11.2368 11.0302C11.7398 11.0298 12.2428 11.0302 12.7735 11.0302C12.7735 10.8443 12.7731 10.6786 12.7735 10.5129C12.7787 9.27751 13.605 8.43799 14.8189 8.43711C16.5545 8.43579 18.2896 8.43974 20.0251 8.4336C20.2654 8.43272 20.4503 8.51076 20.6236 8.67603C21.6764 9.68127 22.7321 10.683 23.7935 11.679C23.9888 11.8623 24.0701 12.0688 24.0696 12.3349C24.0653 15.1419 24.0679 17.949 24.0666 20.7556C24.0662 21.9936 23.2269 22.8401 22.0039 22.8406C21.5005 22.8406 20.997 22.8406 20.4581 22.8406L20.4577 22.8414ZM19.2736 15.4251C19.1608 15.4251 19.0821 15.4251 19.0035 15.4251C18.4274 15.4251 17.8514 15.4295 17.2753 15.4238C16.4715 15.4163 15.9365 14.871 15.9335 14.0617C15.9313 13.537 15.9335 13.0118 15.9326 12.487C15.9326 12.4107 15.9244 12.3344 15.9196 12.2485H15.6564C14.2018 12.2485 12.7472 12.2603 11.293 12.2419C10.7878 12.2354 10.3586 12.54 10.3617 13.1827C10.3785 16.5584 10.3777 19.934 10.3617 23.3096C10.3586 23.9089 10.7459 24.2461 11.274 24.2425C13.6357 24.2263 15.9978 24.236 18.3596 24.2355C18.9732 24.2355 19.2667 23.9344 19.2671 23.3057C19.2693 20.7683 19.2714 18.2313 19.2736 15.6939C19.2736 15.6154 19.2736 15.5365 19.2736 15.4251ZM20.4599 19.774C20.4599 20.3667 20.4568 20.9489 20.4672 21.5302C20.4681 21.567 20.5739 21.6319 20.6318 21.6332C21.0856 21.642 21.5394 21.6402 21.9931 21.6376C22.5472 21.6345 22.8609 21.3158 22.8622 20.7564C22.867 18.1966 22.8708 15.6373 22.8752 13.0775C22.8752 12.9999 22.8752 12.9219 22.8752 12.818C22.7697 12.818 22.6924 12.818 22.6154 12.818C22.0104 12.818 21.4054 12.8241 20.8004 12.8158C20.0973 12.8057 19.5437 12.2428 19.5324 11.5331C19.526 11.1468 19.5311 10.7602 19.5311 10.3735C19.5311 10.142 19.5311 9.91055 19.5311 9.67689C19.4823 9.66461 19.4555 9.6519 19.4287 9.65146C17.8514 9.65146 16.2744 9.64752 14.6971 9.65585C14.3466 9.6576 14.0579 9.90617 13.997 10.2564C13.9542 10.5024 13.968 10.758 13.9559 11.0298C14.0717 11.0298 14.1499 11.0298 14.2277 11.0298C14.9551 11.0298 15.6828 11.0337 16.4101 11.0276C16.6405 11.0254 16.8272 11.0973 16.9944 11.2569C17.9801 12.1963 18.9551 13.1485 19.965 14.06C20.3406 14.3988 20.5134 14.7553 20.4637 15.2572C20.4313 15.5873 20.4577 15.9236 20.4577 16.2725C20.682 16.2725 20.876 16.2703 21.0696 16.273C21.4322 16.2782 21.6988 16.5356 21.7019 16.8784C21.7045 17.2339 21.4382 17.4917 21.0601 17.4957C20.8674 17.4978 20.6751 17.4957 20.4577 17.4957V18.059C20.4577 18.5333 20.4577 18.5307 20.9175 18.5351C21.0459 18.5364 21.1807 18.5338 21.3013 18.5715C21.5675 18.6548 21.7213 18.9156 21.6997 19.2006C21.679 19.4706 21.4914 19.6924 21.2092 19.7315C20.9698 19.7648 20.7248 19.76 20.4599 19.7731V19.774Z" fill="white"/>
<path id="Vector_3" d="M14.8085 22.3563C13.9161 22.3563 13.0237 22.3571 12.1313 22.3554C11.8564 22.355 11.6645 22.2164 11.566 21.9613C11.4735 21.7215 11.5137 21.483 11.709 21.3247C11.8339 21.2239 12.0172 21.1472 12.1749 21.1459C13.9307 21.1336 15.6866 21.1362 17.4429 21.1393C17.8435 21.1402 18.1127 21.4001 18.1058 21.7596C18.0989 22.1073 17.8271 22.3545 17.4429 22.3554C16.5647 22.3571 15.687 22.3558 14.8089 22.3558L14.8085 22.3563Z" fill="white"/>
<path id="Vector_4" d="M14.8088 20.0959C13.9237 20.0959 13.0387 20.095 12.1536 20.0964C11.8896 20.0968 11.6947 19.9854 11.5827 19.743C11.4829 19.5269 11.4911 19.2989 11.654 19.1319C11.7655 19.0179 11.9414 18.9035 12.0897 18.9022C13.9025 18.8868 15.7159 18.8899 17.5292 18.8938C17.8542 18.8947 18.1005 19.1573 18.1057 19.4804C18.1113 19.8171 17.8594 20.0889 17.5063 20.092C16.607 20.0999 15.7077 20.0946 14.8079 20.0946V20.0955L14.8088 20.0959Z" fill="white"/>
<path id="Vector_5" d="M13.8486 17.8433C13.2803 17.8433 12.7116 17.8455 12.1433 17.8424C11.8724 17.8411 11.6736 17.714 11.5703 17.4575C11.4778 17.2278 11.505 16.995 11.6865 16.8345C11.8067 16.7284 11.9869 16.6368 12.1412 16.6346C13.2924 16.618 14.4437 16.6228 15.5954 16.6276C15.958 16.6294 16.2047 16.8788 16.2095 17.2225C16.2142 17.5798 15.9692 17.8376 15.5976 17.842C15.0146 17.8494 14.4316 17.8437 13.8491 17.8437L13.8486 17.8433Z" fill="white"/>
</g>
</svg>
