<svg width="191px" height="57px" viewBox="0 0 177 40" fill="none" xmlns="http://www.w3.org/2000/svg">
<path d="M20.6953 31.6115L21.5198 29.7279L25.7879 26.2843L25.1404 22.8407L24.2279 19.309L27.6715 12.4805H26.2876L32.0276 0L37.5319 12.6566H36.148L41.0049 23.0764H39.2092L42.7408 31.6125H33.881V40H29.7009V31.6115" fill="#005E35"/>
<path d="M18.7257 19.8085H19.2264C20.4872 19.8085 21.6963 20.3093 22.5878 21.2008C23.4793 22.0923 23.9801 23.3014 23.9801 24.5622C23.9801 25.8229 23.4793 27.0321 22.5878 27.9235C21.6963 28.815 20.4872 29.3158 19.2264 29.3158C18.6029 29.3224 17.9845 29.2034 17.4079 28.9658C16.8314 28.7282 16.3087 28.3769 15.8708 27.9329H12.3382C11.784 29.1064 10.8213 30.0378 9.63011 30.553C8.72846 30.8937 7.74577 30.9581 6.80741 30.7379C5.86904 30.5177 5.01753 30.023 4.36152 29.3168C3.76752 28.6633 3.36747 27.8571 3.20628 26.9888C3.04509 26.1205 3.12915 25.2245 3.44902 24.4013C3.74624 23.7692 4.16795 23.2035 4.6889 22.7382C5.20986 22.2728 5.81934 21.9174 6.48088 21.6932L8.12885 21.5161L8.30587 19.9513C7.94997 19.9379 7.60345 19.8335 7.29937 19.648C6.99529 19.4626 6.7438 19.2024 6.56891 18.8921C6.24518 18.4804 6.48088 17.8329 6.65693 17.4251C6.84974 17.1431 7.13031 16.9327 7.45503 16.8266C7.77975 16.7204 8.13043 16.7245 8.45257 16.8383C8.54059 16.9263 8.68827 17.074 8.77629 17.074L10.0125 16.1028C9.86309 15.1687 10.0029 14.2112 10.4132 13.3588C10.8235 12.5064 11.4846 11.7999 12.3079 11.334C12.8857 10.9983 13.5278 10.7881 14.1922 10.7172C14.8567 10.6463 15.5286 10.7161 16.1643 10.9222C17.3626 11.3377 18.3608 12.1889 18.9604 13.3066C19.3132 14.1135 19.4525 14.9977 19.3648 15.8739C19.2771 16.7502 18.9654 17.5892 18.4597 18.3102L18.0479 18.7219L18.7247 19.8115M22.4334 17.0153C22.7555 15.4065 22.582 13.7378 21.936 12.2297C21.2899 10.7215 20.2015 9.44481 18.8147 8.56814C17.7077 7.92738 16.4648 7.5579 15.1875 7.48995C13.9103 7.42201 12.6352 7.65753 11.4665 8.17723C10.2978 8.69694 9.26882 9.48604 8.46379 10.4799C7.65876 11.4738 7.10057 12.6443 6.83493 13.8954C6.04256 14.1166 5.30818 14.5085 4.68328 15.0436C4.15734 15.6538 3.77996 16.3776 3.58074 17.1582C3.38153 17.9388 3.3659 18.7549 3.53509 19.5425C2.31659 20.3537 1.34644 21.4863 0.732093 22.8149C0.11775 24.1436 -0.116795 25.6163 0.0544425 27.0701C0.22568 28.5238 0.796016 29.9018 1.70226 31.0514C2.60851 32.2009 3.81529 33.0771 5.18892 33.5829C6.35619 33.9887 7.59538 34.1461 8.82704 34.0451C10.0587 33.944 11.2556 33.5867 12.3412 32.9961C12.2859 35.1592 11.5089 37.2416 10.1338 38.9122H19.4054C17.8406 37.1165 16.6973 34.9678 17.198 32.4367C17.9184 32.7581 18.7062 32.8994 19.4934 32.8484C21.352 32.8556 23.1544 32.211 24.587 31.0269C26.0196 29.8428 26.9919 28.1941 27.3348 26.3674C27.6777 24.5406 27.3696 22.6515 26.4639 21.0285C25.5582 19.4054 24.1123 18.1512 22.3776 17.4838C22.382 17.3252 22.401 17.1674 22.4343 17.0124L22.4334 17.0153Z" fill="#005E35"/>
<path d="M20.6953 31.6115L21.5198 29.7279L25.7879 26.2843L25.1404 22.8407L24.2279 19.309L27.6715 12.4805H26.2876L32.0276 0L37.5319 12.6566H36.148L41.0049 23.0764H39.2092L42.7408 31.6125H33.881V40H29.7009V31.6115" fill="#005E35"/>
<path d="M18.7257 19.8085H19.2264C20.4872 19.8085 21.6963 20.3093 22.5878 21.2008C23.4793 22.0923 23.9801 23.3014 23.9801 24.5622C23.9801 25.8229 23.4793 27.0321 22.5878 27.9235C21.6963 28.815 20.4872 29.3158 19.2264 29.3158C18.6029 29.3224 17.9845 29.2034 17.4079 28.9658C16.8314 28.7282 16.3087 28.3769 15.8708 27.9329H12.3382C11.784 29.1064 10.8213 30.0378 9.63011 30.553C8.72846 30.8937 7.74577 30.9581 6.80741 30.7379C5.86904 30.5177 5.01753 30.023 4.36152 29.3168C3.76752 28.6633 3.36747 27.8571 3.20628 26.9888C3.04509 26.1205 3.12915 25.2245 3.44902 24.4013C3.74624 23.7692 4.16795 23.2035 4.6889 22.7382C5.20986 22.2728 5.81934 21.9174 6.48088 21.6932L8.12885 21.5161L8.30587 19.9513C7.94997 19.9379 7.60345 19.8335 7.29937 19.648C6.99529 19.4626 6.7438 19.2024 6.56891 18.8921C6.24518 18.4804 6.48088 17.8329 6.65693 17.4251C6.84974 17.1431 7.13031 16.9327 7.45503 16.8266C7.77975 16.7204 8.13043 16.7245 8.45257 16.8383C8.54059 16.9263 8.68827 17.074 8.77629 17.074L10.0125 16.1028C9.86309 15.1687 10.0029 14.2112 10.4132 13.3588C10.8235 12.5064 11.4846 11.7999 12.3079 11.334C12.8857 10.9983 13.5278 10.7881 14.1922 10.7172C14.8567 10.6463 15.5286 10.7161 16.1643 10.9222C17.3626 11.3377 18.3608 12.1889 18.9604 13.3066C19.3132 14.1135 19.4525 14.9977 19.3648 15.8739C19.2771 16.7502 18.9654 17.5892 18.4597 18.3102L18.0479 18.7219L18.7247 19.8115M22.4334 17.0153C22.7555 15.4065 22.582 13.7378 21.936 12.2297C21.2899 10.7215 20.2015 9.44481 18.8147 8.56814C17.7077 7.92738 16.4648 7.5579 15.1875 7.48995C13.9103 7.42201 12.6352 7.65753 11.4665 8.17723C10.2978 8.69694 9.26882 9.48604 8.46379 10.4799C7.65876 11.4738 7.10057 12.6443 6.83493 13.8954C6.04256 14.1166 5.30818 14.5085 4.68328 15.0436C4.15734 15.6538 3.77996 16.3776 3.58074 17.1582C3.38153 17.9388 3.3659 18.7549 3.53509 19.5425C2.31659 20.3537 1.34644 21.4863 0.732093 22.8149C0.11775 24.1436 -0.116795 25.6163 0.0544425 27.0701C0.22568 28.5238 0.796016 29.9018 1.70226 31.0514C2.60851 32.2009 3.81529 33.0771 5.18892 33.5829C6.35619 33.9887 7.59538 34.1461 8.82704 34.0451C10.0587 33.944 11.2556 33.5867 12.3412 32.9961C12.2859 35.1592 11.5089 37.2416 10.1338 38.9122H19.4054C17.8406 37.1165 16.6973 34.9678 17.198 32.4367C17.9184 32.7581 18.7062 32.8994 19.4934 32.8484C21.352 32.8556 23.1544 32.211 24.587 31.0269C26.0196 29.8428 26.9919 28.1941 27.3348 26.3674C27.6777 24.5406 27.3696 22.6515 26.4639 21.0285C25.5582 19.4054 24.1123 18.1512 22.3776 17.4838C22.382 17.3252 22.401 17.1674 22.4343 17.0124L22.4334 17.0153Z" fill="#65A130"/>
<path d="M47.3055 17.8897C47.2988 17.6953 47.3322 17.5015 47.4036 17.3205C47.4749 17.1395 47.5828 16.9751 47.7203 16.8375C47.8579 16.6999 48.0223 16.5921 48.2033 16.5208C48.3843 16.4494 48.5781 16.416 48.7726 16.4227H53.6294C53.9643 16.4468 54.2776 16.5968 54.5064 16.8426C54.7351 17.0884 54.8623 17.4117 54.8623 17.7474C54.8623 18.0832 54.7351 18.4065 54.5064 18.6523C54.2776 18.898 53.9643 19.0481 53.6294 19.0722H50.0978V21.7803H53.0416C53.2214 21.7683 53.4017 21.7939 53.5711 21.8554C53.7404 21.9169 53.8951 22.013 54.0253 22.1375C54.1555 22.2621 54.2583 22.4124 54.3272 22.5789C54.3961 22.7454 54.4296 22.9244 54.4255 23.1045C54.4246 23.2833 54.3877 23.4599 54.3171 23.6241C54.2465 23.7883 54.1435 23.9366 54.0144 24.0601C53.8853 24.1837 53.7326 24.28 53.5655 24.3433C53.3984 24.4067 53.2202 24.4357 53.0416 24.4288H50.0978V28.5501C50.1138 28.7397 50.0896 28.9305 50.027 29.1101C49.9643 29.2897 49.8644 29.4541 49.7339 29.5925C49.6034 29.7309 49.4453 29.8403 49.2697 29.9135C49.0941 29.9866 48.905 30.022 48.7149 30.0172C48.5233 30.0271 48.3318 29.9953 48.1537 29.9239C47.9757 29.8525 47.8153 29.7433 47.6836 29.6037C47.552 29.4642 47.4523 29.2977 47.3914 29.1157C47.3305 28.9338 47.3099 28.7408 47.331 28.5501" fill="#005E35"/>
<path d="M65.1421 24.9014C65.1763 25.5679 65.077 26.2345 64.8502 26.8622C64.6234 27.4898 64.2735 28.0659 63.8212 28.5566C63.3688 29.0473 62.8231 29.4428 62.2159 29.7198C61.6087 29.9968 60.9524 30.1499 60.2853 30.17C57.3415 30.17 55.4284 27.7856 55.4284 24.9014C55.3943 24.2349 55.4935 23.5683 55.7204 22.9406C55.9472 22.313 56.297 21.7369 56.7494 21.2462C57.2017 20.7555 57.7475 20.36 58.3547 20.083C58.9618 19.8059 59.6182 19.6529 60.2853 19.6328C61.6275 19.6887 62.8928 20.2749 63.8033 21.2627C64.7139 22.2504 65.1954 23.559 65.1421 24.9014ZM58.0779 24.9014C58.0779 26.2256 58.7253 27.6095 60.2295 27.6095C61.7337 27.6095 62.3812 26.2266 62.3812 24.9014C62.3812 23.5762 61.7337 22.1052 60.2295 22.1052C58.7253 22.1052 58.0779 23.5772 58.0779 24.9014ZM66.3823 21.0998C66.3789 20.9173 66.4124 20.7359 66.4808 20.5666C66.5491 20.3972 66.6508 20.2434 66.7799 20.1142C66.9089 19.9851 67.0627 19.8833 67.232 19.8148C67.4013 19.7464 67.5826 19.7128 67.7652 19.7159C68.5006 19.7159 69.0894 19.9516 69.0894 20.8641C69.2731 20.5227 69.5445 20.2364 69.8755 20.0346C70.2066 19.8328 70.5854 19.7228 70.9731 19.7159C71.1581 19.7199 71.3404 19.7616 71.5088 19.8386C71.6771 19.9155 71.8279 20.0261 71.952 20.1635C72.076 20.3009 72.1706 20.4622 72.23 20.6375C72.2894 20.8129 72.3123 20.9985 72.2973 21.183C72.2973 22.0955 71.4729 22.0955 70.6494 22.5072C69.8259 22.919 69.0014 23.2427 69.0014 24.3028V28.4829C69.0174 28.6725 68.9932 28.8634 68.9305 29.0431C68.8678 29.2228 68.7678 29.3872 68.6372 29.5256C68.5066 29.6641 68.3483 29.7734 68.1726 29.8465C67.9969 29.9196 67.8077 29.9549 67.6175 29.9499C67.428 29.9523 67.2401 29.9153 67.0656 29.8413C66.8912 29.7673 66.734 29.6579 66.604 29.52C66.474 29.3821 66.374 29.2187 66.3104 29.0402C66.2469 28.8617 66.221 28.6719 66.2346 28.4829" fill="#005E35"/>
<path d="M74.7687 25.7849C74.8672 26.3764 75.1861 26.9086 75.6612 27.2744C76.1362 27.6402 76.7322 27.8125 77.3292 27.7566C78.7121 27.7566 79.7136 26.6974 80.361 26.6974C80.6589 26.7176 80.9394 26.845 81.1505 27.0561C81.3616 27.2673 81.4891 27.5477 81.5092 27.8456C81.5092 28.9938 79.1248 30.141 77.0651 30.141C76.376 30.1604 75.6904 30.036 75.052 29.7758C74.4136 29.5155 73.8365 29.1251 73.3574 28.6294C72.8782 28.1337 72.5076 27.5436 72.2692 26.8968C72.0308 26.2499 71.9298 25.5605 71.9726 24.8725C71.9201 24.2179 72.0008 23.5594 72.2097 22.9369C72.4185 22.3143 72.7513 21.7404 73.1879 21.2499C73.6244 20.7594 74.1558 20.3623 74.75 20.0827C75.3441 19.803 75.9888 19.6466 76.645 19.6227C77.3013 19.5988 77.9555 19.7081 78.5684 19.9439C79.1813 20.1797 79.7401 20.5371 80.2111 20.9946C80.6822 21.4522 81.0557 22.0004 81.3092 22.6061C81.5627 23.2119 81.691 23.8627 81.6862 24.5194C81.6862 25.3438 81.3625 25.7556 80.538 25.7556M79.0368 23.9893C79.0056 23.4372 78.7662 22.9175 78.3669 22.5351C77.9676 22.1526 77.438 21.9359 76.8852 21.9286C76.3279 21.9212 75.79 22.133 75.3875 22.5185C74.985 22.904 74.7501 23.4322 74.7335 23.9893H79.0368ZM88.6321 22.7531C88.1314 22.7531 87.0673 21.9286 86.1597 21.9286C85.659 21.9286 85.2472 22.1643 85.2472 22.6641C85.2472 23.9003 89.927 23.7233 89.927 26.8441C89.927 28.6398 88.3622 30.052 86.0707 30.052C84.5059 30.052 82.3034 29.1395 82.3034 27.9914C82.3174 27.6827 82.4405 27.389 82.6507 27.1627C82.861 26.9363 83.1448 26.7919 83.4516 26.7551C84.5108 26.7551 85.0164 27.6676 86.2477 27.6676C87.0722 27.6676 87.3069 27.4319 87.3069 26.9321C87.3069 25.6959 82.6271 25.873 82.6271 22.7521C82.6271 20.8684 84.1919 19.5442 86.3358 19.5442C87.66 19.5442 89.6913 20.1916 89.6913 21.5159C89.7077 21.8186 89.6068 22.116 89.4095 22.3463C89.2122 22.5765 88.9338 22.7228 88.6321 22.7531ZM91.752 22.2513H91.1652C91.0118 22.2613 90.8581 22.2384 90.7143 22.1842C90.5705 22.13 90.4399 22.0457 90.3313 21.9371C90.2226 21.8284 90.1384 21.6978 90.0842 21.554C90.03 21.4102 90.0071 21.2565 90.017 21.1032C90.0146 20.9517 90.0427 20.8013 90.0996 20.661C90.1564 20.5206 90.2409 20.3931 90.348 20.286C90.4551 20.1789 90.5826 20.0944 90.723 20.0375C90.8634 19.9807 91.0138 19.9526 91.1652 19.955H91.752V18.3041C91.7408 18.1155 91.7683 17.9266 91.8327 17.749C91.8972 17.5714 91.9972 17.4089 92.1268 17.2714C92.2564 17.1339 92.4127 17.0243 92.5861 16.9494C92.7596 16.8746 92.9465 16.8359 93.1354 16.8359C93.3243 16.8359 93.5113 16.8746 93.6847 16.9494C93.8582 17.0243 94.0145 17.1339 94.1441 17.2714C94.2736 17.4089 94.3737 17.5714 94.4381 17.749C94.5026 17.9266 94.5301 18.1155 94.5188 18.3041V19.952H95.2543C95.4185 19.9308 95.5852 19.9445 95.7437 19.9922C95.9022 20.04 96.0488 20.1208 96.1739 20.2292C96.2989 20.3377 96.3996 20.4713 96.4694 20.6214C96.5391 20.7715 96.5763 20.9347 96.5785 21.1002C96.5785 21.9247 95.9917 22.2484 95.2543 22.2484H94.4298V28.4882C94.4458 28.6777 94.4217 28.8685 94.359 29.0481C94.2963 29.2277 94.1965 29.3921 94.066 29.5305C93.9355 29.6689 93.7773 29.7783 93.6017 29.8515C93.4261 29.9247 93.2371 29.96 93.0469 29.9552C92.8574 29.9576 92.6695 29.9206 92.4951 29.8466C92.3206 29.7726 92.1634 29.6632 92.0334 29.5253C91.9034 29.3874 91.8035 29.224 91.7399 29.0455C91.6763 28.867 91.6504 28.6772 91.664 28.4882" fill="#005E35"/>
<path d="M102.203 17.8885C102.182 17.6907 102.205 17.4907 102.272 17.3032C102.338 17.1157 102.445 16.9454 102.586 16.8048C102.727 16.6641 102.897 16.5567 103.084 16.4904C103.272 16.4241 103.472 16.4005 103.67 16.4215H106.967C109.851 16.4215 111.646 17.7457 111.646 20.6895C111.634 21.6071 111.269 22.4848 110.629 23.1419C109.988 23.7989 109.12 24.1852 108.203 24.2212L111.411 27.6648C111.639 27.884 111.784 28.1752 111.823 28.4892C111.842 28.7811 111.768 29.0715 111.612 29.3188C111.456 29.5662 111.226 29.7576 110.954 29.8655C110.682 29.9735 110.383 29.9924 110.1 29.9196C109.816 29.8468 109.564 29.6861 109.377 29.4604L105.197 24.3679V28.4883C105.213 28.6779 105.189 28.8688 105.127 29.0485C105.064 29.2281 104.964 29.3926 104.833 29.531C104.703 29.6694 104.544 29.7788 104.369 29.8519C104.193 29.925 104.004 29.9602 103.813 29.9553C103.621 29.9675 103.429 29.9372 103.25 29.8666C103.071 29.796 102.909 29.6867 102.777 29.5467C102.645 29.4066 102.546 29.2391 102.486 29.0562C102.426 28.8732 102.407 28.6793 102.431 28.4883M104.991 22.4246H106.963C107.187 22.4368 107.411 22.4032 107.622 22.3258C107.832 22.2485 108.025 22.1291 108.188 21.9748C108.351 21.8205 108.48 21.6347 108.569 21.4286C108.658 21.2225 108.703 21.0005 108.703 20.7761C108.703 20.5517 108.658 20.3297 108.569 20.1236C108.48 19.9175 108.351 19.7317 108.188 19.5774C108.025 19.4231 107.832 19.3037 107.622 19.2264C107.411 19.149 107.187 19.1154 106.963 19.1277H104.991V22.4246ZM114.999 25.7801C115.097 26.3717 115.416 26.904 115.891 27.2698C116.366 27.6357 116.963 27.8079 117.56 27.7518C118.943 27.7518 119.944 26.6926 120.591 26.6926C120.889 26.7128 121.17 26.8402 121.381 27.0513C121.592 27.2624 121.719 27.5429 121.74 27.8408C121.74 28.989 119.355 30.1362 117.295 30.1362C116.606 30.1556 115.921 30.0312 115.282 29.771C114.644 29.5107 114.067 29.1203 113.588 28.6246C113.109 28.1289 112.738 27.5388 112.5 26.892C112.261 26.2451 112.16 25.5557 112.203 24.8676C112.151 24.2131 112.231 23.5547 112.44 22.9321C112.649 22.3095 112.982 21.7357 113.418 21.2451C113.855 20.7546 114.386 20.3575 114.98 20.0779C115.575 19.7982 116.219 19.6417 116.875 19.6179C117.532 19.594 118.186 19.7033 118.799 19.9391C119.412 20.1749 119.971 20.5323 120.442 20.9899C120.913 21.4474 121.286 21.9955 121.54 22.6013C121.793 23.2071 121.921 23.8579 121.917 24.5146C121.917 25.3391 121.593 25.7508 120.768 25.7508M119.179 23.9845C119.148 23.4324 118.909 22.9127 118.509 22.5303C118.11 22.1478 117.58 21.9311 117.028 21.9238C116.47 21.9164 115.932 22.1282 115.53 22.5137C115.127 22.8992 114.893 23.4274 114.876 23.9845H119.179ZM128.804 22.7483C128.303 22.7483 127.239 21.9238 126.331 21.9238C125.831 21.9238 125.419 22.1595 125.419 22.6593C125.419 23.8955 130.099 23.7185 130.099 26.8393C130.099 28.635 128.534 30.0472 126.242 30.0472C124.678 30.0472 122.475 29.1347 122.475 27.9865C122.489 27.6779 122.612 27.3843 122.822 27.1579C123.033 26.9315 123.317 26.7871 123.623 26.7503C124.682 26.7503 125.188 27.6628 126.419 27.6628C127.244 27.6628 127.479 27.4271 127.479 26.9273C127.479 25.6911 122.799 25.8682 122.799 22.7473C122.799 20.8636 124.364 19.5394 126.507 19.5394C127.832 19.5394 129.863 20.1868 129.863 21.5111C129.884 21.6635 129.873 21.8188 129.83 21.9666C129.787 22.1144 129.713 22.2512 129.612 22.3682C129.512 22.4851 129.388 22.5793 129.249 22.6447C129.11 22.7101 128.958 22.745 128.804 22.7473" fill="#005E35"/>
<path d="M133.491 25.7823C133.59 26.3738 133.908 26.9061 134.384 27.272C134.859 27.6378 135.455 27.81 136.052 27.7539C137.435 27.7539 138.436 26.6948 139.084 26.6948C139.382 26.7149 139.662 26.8423 139.873 27.0535C140.084 27.2646 140.212 27.545 140.232 27.8429C140.232 28.9911 137.847 30.1384 135.788 30.1384C135.099 30.1578 134.413 30.0334 133.775 29.7731C133.136 29.5128 132.559 29.1224 132.08 28.6267C131.601 28.1311 131.23 27.541 130.992 26.8941C130.753 26.2473 130.652 25.5578 130.695 24.8698C130.643 24.2152 130.723 23.5568 130.932 22.9342C131.141 22.3116 131.474 21.7378 131.911 21.2472C132.347 20.7567 132.878 20.3597 133.473 20.08C134.067 19.8003 134.711 19.6439 135.368 19.62C136.024 19.5962 136.678 19.7054 137.291 19.9412C137.904 20.177 138.463 20.5344 138.934 20.992C139.405 21.4495 139.778 21.9977 140.032 22.6035C140.285 23.2092 140.414 23.86 140.409 24.5167C140.409 25.3412 140.085 25.7529 139.261 25.7529M137.759 23.9866C137.728 23.4346 137.489 22.9149 137.09 22.5324C136.69 22.15 136.161 21.9332 135.608 21.9259C135.051 21.9185 134.513 22.1304 134.11 22.5159C133.708 22.9013 133.473 23.4295 133.456 23.9866H137.759ZM150.917 28.1667C150.917 28.8141 150.917 29.9623 149.592 29.9623C148.768 29.9623 148.444 29.5506 148.268 28.8141C147.967 29.2049 147.579 29.5201 147.134 29.7347C146.69 29.9493 146.201 30.0574 145.708 30.0503C143.147 30.0503 141.209 27.8987 141.209 24.7817C141.209 21.8379 143.181 19.5131 145.708 19.5131C146.202 19.503 146.691 19.6097 147.136 19.8245C147.581 20.0393 147.969 20.3562 148.268 20.7494C148.313 20.4303 148.472 20.1383 148.715 19.9273C148.959 19.7162 149.27 19.6004 149.592 19.6012C150.917 19.6012 150.917 20.6604 150.917 21.3968M146.06 27.6072C147.443 27.6072 148.121 26.2243 148.121 24.8991C148.121 23.5739 147.473 22.103 146.06 22.103C144.593 22.103 143.908 23.57 143.908 24.8991C143.908 26.2282 144.647 27.6072 146.06 27.6072ZM152.623 21.1024C152.62 20.9198 152.654 20.7383 152.722 20.5689C152.79 20.3995 152.892 20.2457 153.021 20.1165C153.15 19.9873 153.304 19.8855 153.474 19.8171C153.643 19.7488 153.825 19.7152 154.007 19.7185C154.743 19.7185 155.332 19.9542 155.332 20.8667C155.515 20.5253 155.787 20.239 156.118 20.0372C156.449 19.8354 156.828 19.7254 157.215 19.7185C157.4 19.7225 157.583 19.7642 157.751 19.8412C157.919 19.9181 158.07 20.0287 158.194 20.1661C158.318 20.3035 158.413 20.4648 158.472 20.6402C158.531 20.8155 158.554 21.0011 158.539 21.1856C158.539 22.098 157.715 22.098 156.891 22.5098C156.068 22.9215 155.244 23.2453 155.244 24.3054V28.4855C155.255 28.6741 155.227 28.863 155.163 29.0406C155.098 29.2182 154.998 29.3807 154.869 29.5182C154.739 29.6557 154.583 29.7653 154.409 29.8401C154.236 29.915 154.049 29.9536 153.86 29.9536C153.671 29.9536 153.484 29.915 153.311 29.8401C153.137 29.7653 152.981 29.6557 152.851 29.5182C152.722 29.3807 152.622 29.2182 152.557 29.0406C152.493 28.863 152.465 28.6741 152.477 28.4855M165.516 22.6575C164.868 22.6575 164.191 22.1567 163.364 22.1567C161.799 22.1567 161.069 23.5397 161.069 24.9529C161.039 25.2819 161.076 25.6134 161.175 25.9282C161.275 26.243 161.437 26.5348 161.65 26.7868C161.864 27.0387 162.125 27.2457 162.419 27.3958C162.714 27.5459 163.035 27.636 163.364 27.661C164.063 27.5089 164.751 27.3129 165.425 27.0742C165.726 27.0845 166.012 27.2087 166.225 27.4219C166.438 27.635 166.563 27.9211 166.573 28.2224C166.573 29.6053 164.277 30.1061 163.276 30.1061C160.332 30.1061 158.419 27.7217 158.419 24.8375C158.385 24.171 158.484 23.5044 158.711 22.8767C158.938 22.249 159.288 21.673 159.74 21.1823C160.192 20.6916 160.738 20.2961 161.345 20.0191C161.953 19.742 162.609 19.589 163.276 19.5689C164.335 19.5689 166.573 19.9806 166.573 21.3059C166.514 21.924 166.19 22.6594 165.514 22.6594M167.665 16.8314C167.654 16.6428 167.682 16.4539 167.746 16.2764C167.81 16.0988 167.911 15.9362 168.04 15.7987C168.17 15.6612 168.326 15.5517 168.499 15.4768C168.673 15.4019 168.86 15.3633 169.049 15.3633C169.238 15.3633 169.425 15.4019 169.598 15.4768C169.771 15.5517 169.928 15.6612 170.057 15.7987C170.187 15.9362 170.287 16.0988 170.351 16.2764C170.416 16.4539 170.443 16.6428 170.432 16.8314V20.5459C170.972 20.0785 171.634 19.7754 172.34 19.6725C173.046 19.5696 173.767 19.6713 174.418 19.9655C175.068 20.2597 175.62 20.7341 176.01 21.3325C176.399 21.9309 176.608 22.6283 176.613 23.3421V28.5256C176.624 28.7142 176.597 28.9031 176.533 29.0807C176.468 29.2583 176.368 29.4208 176.238 29.5583C176.109 29.6958 175.953 29.8053 175.779 29.8802C175.606 29.9551 175.419 29.9938 175.23 29.9938C175.041 29.9938 174.854 29.9551 174.681 29.8802C174.507 29.8053 174.351 29.6958 174.221 29.5583C174.092 29.4208 173.992 29.2583 173.927 29.0807C173.863 28.9031 173.835 28.7142 173.846 28.5256V23.7275C173.867 23.4824 173.835 23.2357 173.754 23.0037C173.672 22.7717 173.542 22.5597 173.372 22.3817C173.203 22.2037 172.997 22.0637 172.769 21.971C172.541 21.8782 172.297 21.8349 172.051 21.8438C171.808 21.836 171.566 21.8807 171.342 21.9747C171.118 22.0687 170.916 22.2098 170.752 22.3885C170.587 22.5672 170.463 22.7793 170.387 23.0103C170.311 23.2414 170.286 23.4859 170.314 23.7275V28.4963C170.33 28.6858 170.306 28.8766 170.243 29.0562C170.18 29.2358 170.08 29.4002 169.95 29.5386C169.819 29.677 169.661 29.7864 169.486 29.8596C169.31 29.9327 169.121 29.9681 168.931 29.9633C168.741 29.9657 168.553 29.9287 168.379 29.8547C168.205 29.7807 168.047 29.6713 167.917 29.5334C167.787 29.3955 167.687 29.2321 167.624 29.0536C167.56 28.8751 167.534 28.6853 167.548 28.4963" fill="#005E35"/>
</svg>
