<svg width="50" height="57" viewBox="0 0 50 57" fill="none" xmlns="http://www.w3.org/2000/svg">
<g id="Group 1900">
<g id="Group 1899" filter="url(#filter0_d_9241_45641)">
<path id="Polygon 1" d="M25.0859 46.5L29.6326 38.625H20.5393L25.0859 46.5Z" fill="#0B0C0C"/>
<circle id="Ellipse 72" cx="25" cy="25" r="14.5" fill="#0B0C0C" stroke="white"/>
</g>
<path id="Vector" d="M19.0014 24.9812C19.0014 23.1113 18.9973 21.2423 19.003 19.3725C19.0063 18.2528 19.7034 17.3416 20.7577 17.0793C20.9791 17.0237 21.2153 17.0074 21.4442 17.0065C22.8678 17 24.2906 17.0065 25.7142 17C25.9635 16.9992 26.1556 17.0768 26.3313 17.2534C27.8154 18.7424 29.3027 20.2281 30.795 21.709C30.9871 21.8994 31.0704 22.0988 31.0696 22.3742C31.0606 25.107 31.0655 27.8399 31.0631 30.5728C31.0623 31.663 30.4502 32.5627 29.4654 32.861C29.1401 32.9591 28.7822 32.9836 28.4389 32.9861C26.1032 32.9992 23.7676 33.0016 21.4319 32.9992C20.1791 32.9975 19.2343 32.2138 19.0276 31.0173C18.999 30.8514 19.0014 30.679 19.0014 30.509C18.9998 28.667 19.0006 26.8241 19.0006 24.982L19.0014 24.9812ZM25.3073 18.0534C25.2149 18.0534 25.1422 18.0534 25.0694 18.0534C23.8648 18.0534 22.6594 18.0518 21.4548 18.0534C20.5918 18.0551 20.0646 18.5781 20.0646 19.437C20.0638 23.1408 20.0638 26.8453 20.0646 30.5491C20.0646 31.3965 20.5926 31.9286 21.4376 31.9294C23.8338 31.9318 26.2307 31.9318 28.6269 31.9294C29.4736 31.9294 30.0015 31.3982 30.0023 30.5515C30.0039 28.023 30.0007 25.4952 30.0072 22.9667C30.0072 22.7714 29.9443 22.7313 29.7629 22.7321C28.5035 22.7387 27.2441 22.7362 25.9847 22.7354C25.496 22.7354 25.3081 22.5458 25.3081 22.0538C25.3081 20.81 25.3081 19.5661 25.3081 18.3223V18.0526L25.3073 18.0534ZM29.1655 21.6607C28.2461 20.7413 27.3226 19.8179 26.3966 18.8911V21.6607H29.1655Z" fill="white"/>
</g>
<defs>
<filter id="filter0_d_9241_45641" x="0" y="0" width="50" height="56.5" filterUnits="userSpaceOnUse" color-interpolation-filters="sRGB">
<feFlood flood-opacity="0" result="BackgroundImageFix"/>
<feColorMatrix in="SourceAlpha" type="matrix" values="0 0 0 0 0 0 0 0 0 0 0 0 0 0 0 0 0 0 127 0" result="hardAlpha"/>
<feOffset/>
<feGaussianBlur stdDeviation="5"/>
<feComposite in2="hardAlpha" operator="out"/>
<feColorMatrix type="matrix" values="0 0 0 0 0 0 0 0 0 0 0 0 0 0 0 0 0 0 0.25 0"/>
<feBlend mode="normal" in2="BackgroundImageFix" result="effect1_dropShadow_9241_45641"/>
<feBlend mode="normal" in="SourceGraphic" in2="effect1_dropShadow_9241_45641" result="shape"/>
</filter>
</defs>
</svg>
