<svg width="38" height="38" viewBox="0 0 38 38" fill="none" xmlns="http://www.w3.org/2000/svg">
<g id="refresh" clip-path="url(#clip0_6756_108098)">
<path id="Vector" d="M27.3568 10.5927C25.1093 8.3452 22.0248 6.9502 18.5993 6.9502C11.7483 6.9502 6.21484 12.4992 6.21484 19.3502C6.21484 26.2012 11.7483 31.7502 18.5993 31.7502C24.3808 31.7502 29.2013 27.7977 30.5808 22.4502H27.3568C26.0858 26.0617 22.6448 28.6502 18.5993 28.6502C13.4688 28.6502 9.29934 24.4807 9.29934 19.3502C9.29934 14.2197 13.4688 10.0502 18.5993 10.0502C21.1723 10.0502 23.4663 11.1197 25.1403 12.8092L20.1493 17.8002H30.9993V6.9502L27.3568 10.5927Z" fill="#1B1E1C"/>
</g>
<defs>
<clipPath id="clip0_6756_108098">
<rect width="37.2" height="37.2" fill="white" transform="translate(0 0.75)"/>
</clipPath>
</defs>
</svg>
